<svg width="24" height="24" viewBox="0 0 24 24" fill="none" xmlns="http://www.w3.org/2000/svg">
<path d="M23.9937 11.6085C23.7923 5.30378 18.6961 0.207635 12.3916 0.00629632C8.96117 -0.102545 5.75175 1.20321 3.37986 3.65213C1.09962 6.00636 -0.0984596 9.11002 0.00633634 12.3918C0.207504 18.6963 5.30376 23.7926 11.6082 23.9938C11.7394 23.998 11.8695 24 11.9999 24C15.2776 24 18.3389 22.703 20.62 20.3479C22.9002 17.9939 24.0985 14.89 23.9937 11.6085ZM18.8047 18.5898C17.004 20.449 14.5873 21.4729 11.9999 21.4729C11.8965 21.4729 11.793 21.4712 11.6887 21.468C6.71311 21.3091 2.6911 17.2871 2.53205 12.3112C2.44933 9.71959 3.39502 7.26882 5.19509 5.41044C6.99582 3.55121 9.41253 2.52733 11.9999 2.52733C12.1034 2.52733 12.2068 2.52901 12.3111 2.53222C17.2867 2.6911 21.3087 6.71316 21.4678 11.689C21.5505 14.2806 20.6046 16.7314 18.8047 18.5898Z" fill="#FA5634"/>
<path d="M15.9359 11.3026L10.6146 7.48712C10.0469 7.08007 9.25676 7.48578 9.25676 8.18431V15.8155C9.25676 16.514 10.0469 16.9197 10.6146 16.5127L15.9357 12.697C16.4132 12.3548 16.4132 11.645 15.9359 11.3026Z" fill="#FA5634"/>
</svg>
